<svg width="98" height="98" viewBox="0 0 98 98" fill="none" xmlns="http://www.w3.org/2000/svg">
<rect width="97.4445" height="97.4445" rx="24" fill="url(#paint0_radial_12236_8328)"/>
<path d="M62.5466 40.1073C60.0492 40.1073 58.0172 38.0613 58.0172 35.5501V27H40.2747C36.823 27 34.0273 29.8129 34.0273 33.2857V39.0026C35.0269 38.7056 36.0734 38.55 37.1448 38.55C40.0639 38.55 42.8049 39.6909 44.8634 41.7604C49.1194 46.0457 49.121 53.0134 44.8665 57.2971C42.8049 59.3699 40.0639 60.5107 37.1448 60.5107C36.0812 60.5107 35.0332 60.3536 34.0273 60.0487V64.7143C34.0273 68.1871 36.823 71 40.2747 71H64.78C68.2317 71 71.0273 68.1871 71.0273 64.7143V40.1073H62.5466ZM53.3129 56.9043H49.3146C48.5384 56.9043 47.909 56.271 47.909 55.49C47.909 54.709 48.5384 54.0757 49.3146 54.0757H53.3129C54.0892 54.0757 54.7186 54.709 54.7186 55.49C54.7186 56.271 54.0892 56.9043 53.3129 56.9043ZM61.5907 51.5787H50.8296C50.0534 51.5787 49.424 50.9454 49.424 50.1644C49.424 49.3834 50.0534 48.7501 50.8296 48.7501H61.5907C62.3669 48.7501 62.9964 49.3834 62.9964 50.1644C62.9964 50.9454 62.3669 51.5787 61.5907 51.5787Z" fill="#076AAB"/>
<path d="M36.7945 57.4668C38.9038 57.4668 41.0131 56.6637 42.6193 55.0575C45.83 51.845 45.83 46.6199 42.6193 43.4058C39.4085 40.1981 34.182 40.1981 30.9697 43.4058C28.1049 46.2723 27.8145 50.7323 30.0618 53.9448L26.4463 57.5605C25.8877 58.1192 25.8877 59.0239 26.4463 59.581C26.7257 59.8603 27.0907 60 27.4558 60C27.8208 60 28.1858 59.8603 28.4652 59.581L32.0823 55.9637C33.4932 56.9557 35.1391 57.4668 36.7945 57.4668ZM32.9885 45.4279C35.0867 43.3296 38.5006 43.3296 40.5972 45.4279C42.6954 47.5246 42.6954 50.9402 40.5972 53.0369C38.4991 55.1352 35.0851 55.1352 32.9869 53.0369C30.8919 50.9402 30.8919 47.5262 32.9885 45.4279Z" fill="#8BD500"/>
<path d="M60.999 34.9817C60.999 36.0936 61.905 37 63.0205 37H72.999V36.4495C72.999 34.9817 72.411 33.5872 71.3819 32.5596L65.4278 26.6147C64.3969 25.5872 63.0002 25 61.5301 25H60.999V34.9817Z" fill="#076AAB"/>
<defs>
<radialGradient id="paint0_radial_12236_8328" cx="0" cy="0" r="1" gradientUnits="userSpaceOnUse" gradientTransform="translate(48.7222 48.7222) rotate(90) scale(48.7222)">
<stop stop-color="white"/>
<stop offset="0.33" stop-color="#F4FBFF"/>
<stop offset="0.66" stop-color="#EDF8FF"/>
<stop offset="1" stop-color="#DEF2FF"/>
</radialGradient>
</defs>
</svg>
